# xmcd CD database file
#
# Track frame offsets:
#	150
#	32090
#	66377
#	98202
#	155440
#
# Disc length: 3021 seconds
#
# Revision: 0
# Processed by: cddbd v1.5.2PL0 Copyright (c) Steve Scherf et al.
# Submitted via: CDex 1.70beta2
#
DISCID=3c0bcb05
DTITLE=Frank Wright - Your prayer
DYEAR=1967
DGENRE=Jazz
TTITLE0=The Lady
TTITLE1=Traon stop
TTITLE2=No end
TTITLE3=Fire of spirits
TTITLE4=Your prayer
EXTD=YEAR: 1967
EXTT0=
EXTT1=
EXTT2=
EXTT3=
EXTT4=
PLAYORDER=
